<svg width="24" height="24" viewBox="0 0 24 24" fill="none" xmlns="http://www.w3.org/2000/svg">
  <path d="M5.25 12.75v-1.35c0-3.86 3.14-7 7-7s7 3.14 7 7v1.35" stroke="#7FA998" stroke-width="1.75" stroke-linecap="round"/>
  <path d="M4.25 12h2.95c.69 0 1.25.56 1.25 1.25v3.25c0 .69-.56 1.25-1.25 1.25H4.25c-.55 0-1-.45-1-1v-3.75c0-.55.45-1 1-1z" stroke="#7FA998" stroke-width="1.75" stroke-linejoin="round"/>
  <path d="M19.75 12h-2.95c-.69 0-1.25.56-1.25 1.25v3.25c0 .69.56 1.25 1.25 1.25h2.95c.55 0 1-.45 1-1v-3.75c0-.55-.45-1-1-1z" stroke="#7FA998" stroke-width="1.75" stroke-linejoin="round"/>
  <path d="M12 17.75v1.6" stroke="#7FA998" stroke-width="1.75" stroke-linecap="round"/>
  <path d="M9.75 19.35h4.5" stroke="#7FA998" stroke-width="1.75" stroke-linecap="round"/>
</svg>
